<svg width="73" height="77" viewBox="0 0 73 77" fill="none" xmlns="http://www.w3.org/2000/svg">
<path d="M22.3494 72.428H9.75955V4.33463C9.75955 3.05058 10.8071 2 12.0874 2H61.3606C62.641 2 63.6885 3.05058 63.6885 4.33463V72.428H51.215" stroke="#FF699F" stroke-width="2.8" stroke-miterlimit="10"/>
<path d="M22.2292 72.428H17.0341V10.7665C17.0341 9.92412 17.7228 9.23346 18.5628 9.23346H54.8853C55.7253 9.23346 56.4139 9.92412 56.4139 10.7665V72.428H51.2499" stroke="#FF699F" stroke-width="2.8" stroke-miterlimit="10"/>
<path d="M50.1888 75.4436H23.2593C22.7141 75.4436 22.2719 75 22.2719 74.4533V70.4008C22.2719 69.8541 22.7141 69.4105 23.2593 69.4105H50.1908C50.7359 69.4105 51.1782 69.8541 51.1782 70.4008V74.4533C51.1762 75 50.7339 75.4436 50.1888 75.4436Z" stroke="#FF699F" stroke-width="2.8" stroke-miterlimit="10"/>
<path d="M41.1683 24.2335H32.2797C31.8665 24.2335 31.5329 23.8988 31.5329 23.4844V18.9514C31.5329 18.537 31.8665 18.2023 32.2797 18.2023H41.1683C41.5815 18.2023 41.9152 18.537 41.9152 18.9514V23.4844C41.9152 23.8988 41.5815 24.2335 41.1683 24.2335Z" stroke="#FF699F" stroke-width="2.8" stroke-miterlimit="10"/>
<path d="M47.7581 50.9961V38.5195C47.7581 38.144 48.0627 37.8386 48.4371 37.8386H52.3906C52.765 37.8386 53.0695 38.144 53.0695 38.5195V50.9961C53.0695 51.3716 52.765 51.6771 52.3906 51.6771H48.4371C48.0607 51.6771 47.7581 51.3716 47.7581 50.9961Z" stroke="#FF699F" stroke-width="2.8" stroke-miterlimit="10"/>
<path d="M9.75956 72.428H2.59555C2.26577 72.428 2 72.1596 2 71.8308V65.2452C2 64.9144 2.2677 64.6479 2.59555 64.6479H9.16208C9.49186 64.6479 9.75762 64.9164 9.75762 65.2452V72.428H9.75956Z" stroke="#FF699F" stroke-width="2.8" stroke-miterlimit="10"/>
<path d="M70.6818 72.428H63.6885V65.4144C63.6885 64.9903 64.0319 64.6459 64.4548 64.6459H70.6818C71.1047 64.6459 71.4481 64.9903 71.4481 65.4144V71.6595C71.4481 72.0837 71.1047 72.428 70.6818 72.428Z" stroke="#FF699F" stroke-width="2.8" stroke-miterlimit="10"/>
<path d="M36.724 31.9572C37.8479 31.9572 38.759 31.0435 38.759 29.9163C38.759 28.7892 37.8479 27.8755 36.724 27.8755C35.6002 27.8755 34.6891 28.7892 34.6891 29.9163C34.6891 31.0435 35.6002 31.9572 36.724 31.9572Z" stroke="#FF699F" stroke-width="2.8" stroke-miterlimit="10"/>
</svg>
